:FULLY-SPECIFIED
:FORCE-ALL-JOINTS-BE-3DOF
:DEGREES
1937
root 0.688846 14.2139 28.7539 -153.707 68.3016 -157.752
lfemur -57.5294 22.5811 -14.9758
ltibia 84.7247 -0 0
lfoot -10.4645 12.7929 -0.697537
ltoes -22.3253 0 0
rfemur -18.9568 -11.876 22.1268
rtibia 65.6491 -0 0
rfoot -31.5072 -31.7776 0.00528548
rtoes -25.5855 0 0
lowerback 16.4576 1.01923 4.86042
upperback 0.157205 2.98746 4.93878
thorax -9.20549 1.42665 1.81299
lowerneck -2.70482 10.8405 3.96608
upperneck 2.56259 14.7297 -7.32449
head 2.36287 7.28552 -2.59587
lclavicle -1.48235e-14 1.21826e-14 1.4609e-30
lhumerus 28.8769 -34.7901 50.1236
lradius 85.5358 -0 0
lwrist 0.471024 0 0
lhand -26.3852 59.6174 0.133862
lfingers 7.12502 -0 0
lthumb 0.203609 -42.4683 -2.90482
rclavicle -1.48235e-14 1.21826e-14 1.4609e-30
rhumerus -63.3844 29.3621 -88.8483
rradius 111.462 -0 0
rwrist -78.8962 180 180
rhand -5.18396 -11.8026 -10.5736
rfingers 7.12502 -0 0
rthumb 20.4966 -39.8016 -10.0482
1938
root 0.649973 14.2165 28.7624 -154.262 67.8823 -158.402
lfemur -57.6506 22.5523 -15.1276
ltibia 84.9335 -0 0
lfoot -10.5797 12.9588 -0.684399
ltoes -22.3485 0 0
rfemur -19.1387 -11.9732 22.1791
rtibia 65.7008 -0 0
rfoot -31.5185 -31.7877 0.00515866
rtoes -25.6055 0 0
lowerback 16.4295 0.979802 4.89287
upperback 0.142528 2.94083 4.93945
thorax -9.20298 1.4034 1.80811
lowerneck -2.68554 10.8819 4.00801
upperneck 2.51248 14.7845 -7.40448
head 2.35429 7.31361 -2.62677
lclavicle -1.48366e-14 1.24384e-14 1.43589e-30
lhumerus 28.7174 -35.1818 49.8581
lradius 86.1365 -0 0
lwrist 0.941838 0 0
lhand -26.3234 59.6749 0.130962
lfingers 7.12502 -0 0
lthumb 0.272662 -43.4842 -2.86023
rclavicle -1.48366e-14 1.24384e-14 1.43589e-30
rhumerus -63.3474 29.5042 -88.9848
rradius 111.339 -0 0
rwrist -79.8129 180 180
rhand -4.87271 -12.6299 -10.351
rfingers 7.12502 -0 0
rthumb 20.7966 -40.6195 -9.83733
1939
root 0.611356 14.219 28.7708 -154.79 67.4636 -159.025
lfemur -57.7705 22.5237 -15.2777
ltibia 85.1405 -0 0
lfoot -10.6941 13.1237 -0.671042
ltoes -22.3713 0 0
rfemur -19.3194 -12.0696 22.2314
rtibia 65.7521 -0 0
rfoot -31.5294 -31.7978 0.00503074
rtoes -25.6253 0 0
lowerback 16.4016 0.940661 4.9251
upperback 0.127955 2.89453 4.94011
thorax -9.20048 1.38031 1.80325
lowerneck -2.66639 10.9229 4.04966
upperneck 2.46264 14.8387 -7.48394
head 2.34576 7.34149 -2.65743
lclavicle -1.48486e-14 1.26942e-14 1.41061e-30
lhumerus 28.5594 -35.5701 49.5954
lradius 86.7309 -0 0
lwrist 1.40711 0 0
lhand -26.2624 59.732 0.12802
lfingers 7.12502 -0 0
lthumb 0.340714 -44.5003 -2.81457
rclavicle -1.48486e-14 1.26942e-14 1.41061e-30
rhumerus -63.3113 29.645 -89.1205
rradius 111.217 -0 0
rwrist -80.7229 180 180
rhand -4.56719 -13.4493 -10.1256
rfingers 7.12502 -0 0
rthumb 21.0912 -41.4299 -9.62378
1940
root 0.573002 14.2216 28.7791 -155.294 67.0458 -159.624
lfemur -57.8891 22.4952 -15.4263
ltibia 85.3457 -0 0
lfoot -10.8077 13.2876 -0.657474
ltoes -22.3936 0 0
rfemur -19.499 -12.1652 22.2834
rtibia 65.8029 -0 0
rfoot -31.5401 -31.8078 0.00490183
rtoes -25.6451 0 0
lowerback 16.3739 0.901815 4.95712
upperback 0.113489 2.84855 4.94077
thorax -9.19798 1.35739 1.79843
lowerneck -2.64735 10.9636 4.09104
upperneck 2.4131 14.8925 -7.56284
head 2.33727 7.36914 -2.68787
lclavicle -1.48596e-14 1.29498e-14 1.38507e-30
lhumerus 28.4029 -35.9549 49.3357
lradius 87.3188 -0 0
lwrist 1.86672 0 0
lhand -26.202 59.7886 0.125039
lfingers 7.12502 -0 0
lthumb 0.407739 -45.5164 -2.76787
rclavicle -1.48596e-14 1.29498e-14 1.38507e-30
rhumerus -63.276 29.7847 -89.2554
rradius 111.095 -0 0
rwrist -81.626 180 180
rhand -4.26741 -14.261 -9.89762
rfingers 7.12502 -0 0
rthumb 21.3804 -42.2327 -9.40779
1941
root 0.534917 14.2241 28.7874 -155.774 66.6291 -160.198
lfemur -58.0065 22.4671 -15.5731
ltibia 85.549 -0 0
lfoot -10.9205 13.4505 -0.643705
ltoes -22.4154 0 0
rfemur -19.6773 -12.26 22.3353
rtibia 65.8531 -0 0
rfoot -31.5505 -31.8177 0.00477206
rtoes -25.6648 0 0
lowerback 16.3463 0.863271 4.98891
upperback 0.0991343 2.80291 4.94143
thorax -9.19549 1.33463 1.79363
lowerneck -2.62845 11.004 4.13212
upperneck 2.36386 14.9458 -7.64118
head 2.32884 7.39656 -2.71807
lclavicle -1.48697e-14 1.32053e-14 1.35928e-30
lhumerus 28.2478 -36.3361 49.079
lradius 87.9 -0 0
lwrist 2.32055 0 0
lhand -26.1423 59.8445 0.122022
lfingers 7.12502 -0 0
lthumb 0.473713 -46.5327 -2.72015
rclavicle -1.48697e-14 1.32053e-14 1.35928e-30
rhumerus -63.2415 29.923 -89.3896
rradius 110.975 -0 0
rwrist -82.5222 180 180
rhand -3.97342 -15.0646 -9.66732
rfingers 7.12502 -0 0
rthumb 21.6641 -43.0277 -9.18953
1942
root 0.497108 14.2266 28.7956 -156.233 66.2138 -160.75
lfemur -58.1225 22.4391 -15.7183
ltibia 85.7504 -0 0
lfoot -11.0324 13.6123 -0.629744
ltoes -22.4367 0 0
rfemur -19.8542 -12.3539 22.387
rtibia 65.9029 -0 0
rfoot -31.5607 -31.8275 0.00464153
rtoes -25.6845 0 0
lowerback 16.3189 0.825036 5.02047
upperback 0.0848921 2.75761 4.94208
thorax -9.19301 1.31204 1.78887
lowerneck -2.60967 11.044 4.17291
upperneck 2.31494 14.9985 -7.71892
head 2.32046 7.42375 -2.74803
lclavicle -1.48788e-14 1.34605e-14 1.33322e-30
lhumerus 28.0942 -36.7136 48.8253
lradius 88.4744 -0 0
lwrist 2.76849 0 0
lhand -26.0834 59.8999 0.118973
lfingers 7.12502 -0 0
lthumb 0.538612 -47.5491 -2.67142
rclavicle -1.48788e-14 1.34605e-14 1.33322e-30
rhumerus -63.2079 30.06 -89.5229
rradius 110.855 -0 0
rwrist -83.4111 180 180
rhand -3.68521 -15.8601 -9.43486
rfingers 7.12502 -0 0
rthumb 21.9424 -43.8149 -8.96918
1943
root 0.459582 14.2292 28.8036 -156.671 65.8 -161.28
lfemur -58.2371 22.4114 -15.8618
ltibia 85.9499 -0 0
lfoot -11.1435 13.773 -0.615601
ltoes -22.4575 0 0
rfemur -20.0299 -12.4471 22.4385
rtibia 65.9521 -0 0
rfoot -31.5705 -31.8373 0.00451037
rtoes -25.704 0 0
lowerback 16.2917 0.787116 5.05179
upperback 0.0707656 2.71266 4.94273
thorax -9.19053 1.28963 1.78413
lowerneck -2.59104 11.0836 4.2134
upperneck 2.26634 15.0508 -7.79606
head 2.31214 7.4507 -2.77773
lclavicle -1.4887e-14 1.37156e-14 1.30692e-30
lhumerus 27.942 -37.0872 48.5748
lradius 89.0419 -0 0
lwrist 3.21042 0 0
lhand -26.0252 59.9548 0.115894
lfingers 7.12502 -0 0
lthumb 0.602411 -48.5656 -2.62171
rclavicle -1.4887e-14 1.37156e-14 1.30692e-30
rhumerus -63.175 30.1956 -89.6553
rradius 110.736 -0 0
rwrist -84.2927 180 180
rhand -3.40282 -16.6475 -9.20043
rfingers 7.12502 -0 0
rthumb 22.2152 -44.5941 -8.74694
1944
root 0.422347 14.2317 28.8116 -157.09 65.388 -161.791
lfemur -58.3504 22.3841 -16.0034
ltibia 86.1475 -0 0
lfoot -11.2537 13.9326 -0.601284
ltoes -22.4778 0 0
rfemur -20.2042 -12.5393 22.4898
rtibia 66.0008 -0 0
rfoot -31.5801 -31.8469 0.00437869
rtoes -25.7235 0 0
lowerback 16.2647 0.749518 5.08287
upperback 0.0567578 2.66807 4.94338
thorax -9.18806 1.2674 1.77943
lowerneck -2.57254 11.1229 4.25357
upperneck 2.21808 15.1025 -7.87258
head 2.30387 7.47739 -2.80718
lclavicle -1.48943e-14 1.39704e-14 1.28037e-30
lhumerus 27.7911 -37.457 48.3274
lradius 89.6024 -0 0
lwrist 3.64622 0 0
lhand -25.9677 60.009 0.112787
lfingers 7.12502 -0 0
lthumb 0.665087 -49.5823 -2.57105
rclavicle -1.48943e-14 1.39704e-14 1.28037e-30
rhumerus -63.143 30.3299 -89.7869
rradius 110.618 -0 0
rwrist -85.1667 180 180
rhand -3.12625 -17.4265 -8.96422
rfingers 7.12502 -0 0
rthumb 22.4824 -45.3652 -8.52298
1945
root 0.385408 14.2341 28.8195 -157.489 64.978 -162.282
lfemur -58.4622 22.357 -16.1433
ltibia 86.3429 -0 0
lfoot -11.3629 14.091 -0.586805
ltoes -22.4976 0 0
rfemur -20.3771 -12.6308 22.5409
rtibia 66.0489 -0 0
rfoot -31.5894 -31.8564 0.00424661
rtoes -25.7429 0 0
lowerback 16.2378 0.712249 5.11369
upperback 0.0428712 2.62385 4.94402
thorax -9.18559 1.24535 1.77476
lowerneck -2.55419 11.1618 4.29342
upperneck 2.17018 15.1537 -7.94846
head 2.29567 7.50384 -2.83637
lclavicle -1.49008e-14 1.42249e-14 1.25358e-30
lhumerus 27.6415 -37.8227 48.0832
lradius 90.1556 -0 0
lwrist 4.07577 0 0
lhand -25.9111 60.0626 0.109655
lfingers 7.12502 -0 0
lthumb 0.726616 -50.5992 -2.51944
rclavicle -1.49008e-14 1.42249e-14 1.25358e-30
rhumerus -63.1118 30.4627 -89.9175
rradius 110.502 -0 0
rwrist -86.0331 180 180
rhand -2.85549 -18.1971 -8.72644
rfingers 7.12502 -0 0
rthumb 22.7441 -46.1282 -8.2975
1946
root 0.348773 14.2366 28.8273 -157.872 64.5702 -162.754
lfemur -58.5726 22.3302 -16.2814
ltibia 86.5364 -0 0
lfoot -11.4713 14.2482 -0.572172
ltoes -22.5168 0 0
rfemur -20.5486 -12.7213 22.5916
rtibia 66.0964 -0 0
rfoot -31.5983 -31.8658 0.00411425
rtoes -25.7622 0 0
lowerback 16.2112 0.675315 5.14425
upperback 0.0291089 2.58 4.94465
thorax -9.18314 1.22349 1.77012
lowerneck -2.536 11.2004 4.33294
upperneck 2.12263 15.2043 -8.02369
head 2.28752 7.53004 -2.8653
lclavicle -1.49063e-14 1.44791e-14 1.22656e-30
lhumerus 27.4932 -38.1843 47.8424
lradius 90.7014 -0 0
lwrist 4.49897 0 0
lhand -25.8552 60.1156 0.106502
lfingers 7.12502 -0 0
lthumb 0.786975 -51.6162 -2.46692
rclavicle -1.49063e-14 1.44791e-14 1.22656e-30
rhumerus -63.0815 30.5941 -90.0472
rradius 110.386 -0 0
rwrist -86.8916 180 180
rhand -2.59056 -18.9592 -8.48728
rfingers 7.12502 -0 0
rthumb 23.0003 -46.8828 -8.07066
1947
root 0.312449 14.2391 28.835 -158.237 64.1647 -163.21
lfemur -58.6816 22.3038 -16.4177
ltibia 86.7277 -0 0
lfoot -11.5787 14.4043 -0.557395
ltoes -22.5355 0 0
rfemur -20.7185 -12.811 22.6421
rtibia 66.1434 -0 0
rfoot -31.607 -31.8752 0.00398173
rtoes -25.7815 0 0
lowerback 16.1848 0.638722 5.17455
upperback 0.0154735 2.53654 4.94528
thorax -9.1807 1.20182 1.76552
lowerneck -2.51796 11.2385 4.37212
upperneck 2.07546 15.2544 -8.09825
head 2.27944 7.55598 -2.89395
lclavicle -1.49111e-14 1.4733e-14 1.19929e-30
lhumerus 27.3461 -38.5416 47.6049
lradius 91.2398 -0 0
lwrist 4.91568 0 0
lhand -25.8001 60.1679 0.10333
lfingers 7.12502 -0 0
lthumb 0.846143 -52.6333 -2.4135
rclavicle -1.49111e-14 1.4733e-14 1.19929e-30
rhumerus -63.0519 30.7239 -90.176
rradius 110.271 -0 0
rwrist -87.742 180 180
rhand -2.33144 -19.7127 -8.24692
rfingers 7.12502 -0 0
rthumb 23.251 -47.6291 -7.84265
1948
root 0.276443 14.2415 28.8426 -158.587 63.7617 -163.648
lfemur -58.7891 22.2778 -16.552
ltibia 86.9169 -0 0
lfoot -11.6851 14.559 -0.542486
ltoes -22.5537 0 0
rfemur -20.887 -12.8998 22.6923
rtibia 66.1898 -0 0
rfoot -31.6154 -31.8844 0.00384918
rtoes -25.8006 0 0
lowerback 16.1586 0.602478 5.20458
upperback 0.00196779 2.49347 4.9459
thorax -9.17826 1.18034 1.76095
lowerneck -2.50008 11.2763 4.41096
upperneck 2.02868 15.3039 -8.17211
head 2.27143 7.58165 -2.92233
lclavicle -1.4915e-14 1.49865e-14 1.1718e-30
lhumerus 27.2001 -38.8946 47.3709
lradius 91.7705 -0 0
lwrist 5.3258 0 0
lhand -25.7458 60.2196 0.100143
lfingers 7.12502 -0 0
lthumb 0.904096 -53.6506 -2.35922
rclavicle -1.4915e-14 1.49865e-14 1.1718e-30
rhumerus -63.0232 30.8523 -90.3038
rradius 110.157 -0 0
rwrist -88.5843 180 180
rhand -2.07813 -20.4575 -8.00556
rfingers 7.12502 -0 0
rthumb 23.4962 -48.3668 -7.61367
